<svg class="svg-icon" style="width: 1em; height: 1em;vertical-align: middle;fill: currentColor;overflow: hidden;" viewBox="0 0 1024 1024" version="1.1" xmlns="http://www.w3.org/2000/svg"><path d="M512.01228 958.708971a68.711941 68.711941 0 0 1-39.749306-12.634761L296.450782 821.48975c-105.238856-82.570577-162.446789-199.335954-162.446789-329.760422V255.219729a34.362622 34.362622 0 0 1 19.640316-31.05018L473.621924 72.453149a33.730219 33.730219 0 0 1 3.691066-1.493004c22.316262-7.559163 46.930869-7.559163 69.24713 0 1.258667 0.419556 2.499937 0.923022 3.691066 1.493004L870.346481 224.169549a34.360576 34.360576 0 0 1 19.648502 31.05018v236.509599c0 130.440841-57.217143 247.189845-161.096024 328.753489L551.72884 946.07421c-11.863189 8.423857-25.789363 12.634762-39.71656 12.634761zM202.731284 276.956799v214.772529c0 108.87978 47.879474 206.433606 134.811382 274.691199L511.994883 889.999077l175.811168-124.58446c85.590354-67.234287 133.460618-164.788114 133.460618-273.684266V276.956799L522.902304 135.542023c-7.131421-2.072195-14.832823-2.055822-21.930475 0L202.731284 276.956799z" fill="#444444" /><path d="M448.986851 636.706233L306.546721 477.400994l64.045665-57.267285 105.708554 118.225635 199.487404-204.051349 61.428047 60.052724-238.042511 243.465011c-13.901615 14.217816-36.933167 13.70514-50.187029-1.119497z" fill="#00D8A0" /></svg>